<?xml version="1.0" standalone="no"?>
<!DOCTYPE svg PUBLIC "-//W3C//DTD SVG 20010904//EN"
 "http://www.w3.org/TR/2001/REC-SVG-20010904/DTD/svg10.dtd">
<svg version="1.0" xmlns="http://www.w3.org/2000/svg"
 width="512.000000pt" height="512.000000pt" viewBox="0 0 512.000000 512.000000"
 preserveAspectRatio="xMidYMid meet">

<g transform="translate(0.000000,512.000000) scale(0.100000,-0.100000)"
fill="#e91624" stroke="none">

<path d="M2320 4704 c-374 -32 -629 -79 -915 -171 -410 -131 -757 -332 -1005
-582 -219 -221 -346 -458 -386 -721 -26 -177 -15 -297 31 -337 l26 -23 2480 0
c2688 0 2520 -3 2550 51 18 34 22 158 10 268 -33 280 -162 531 -391 762 -174
175 -359 302 -622 429 -331 158 -673 254 -1098 306 -118 14 -579 27 -680 18z
m288 -418 c48 -25 248 -238 254 -271 15 -74 -56 -138 -126 -115 -20 6 -79 57
-154 134 -114 115 -122 125 -122 162 1 80 77 127 148 90z m-601 -213 c34 -22
47 -74 30 -115 -8 -18 -68 -86 -134 -150 -113 -111 -122 -118 -160 -118 -67 0
-115 61 -98 128 8 37 242 269 275 274 32 5 59 -1 87 -19z m2145 -300 c66 -65
126 -131 135 -147 40 -77 -40 -167 -122 -136 -38 15 -240 213 -260 257 -10 21
-14 45 -10 63 9 42 58 80 102 80 33 0 48 -12 155 -117z m-3195 -93 c21 0 239
-216 258 -256 33 -69 -13 -144 -88 -144 -38 0 -47 7 -169 127 -140 139 -154
164 -123 223 17 32 69 63 93 55 8 -3 20 -5 29 -5z m2457 -4 c43 -18 66 -51 66
-95 0 -32 -13 -48 -133 -168 -142 -142 -158 -151 -221 -122 -32 15 -59 71 -51
107 7 32 248 278 280 285 11 3 21 5 23 6 1 0 18 -5 36 -13z"/>
<path d="M239 2631 c-41 -41 -41 -101 0 -142 l29 -29 826 0 826 0 622 -310
c530 -264 627 -309 653 -304 22 5 111 87 335 310 l306 304 508 0 508 0 29 29
c41 41 41 101 0 142 l-29 29 -2292 0 -2292 0 -29 -29z"/>
<path d="M288 2226 c-240 -85 -352 -332 -249 -548 54 -114 130 -182 251 -224
54 -18 114 -19 2270 -19 2156 0 2216 1 2270 19 121 42 196 109 253 226 28 59
32 74 32 160 0 86 -3 101 -31 161 -55 115 -137 187 -261 228 -58 20 -85 21
-415 21 l-353 0 -365 -365 c-323 -323 -370 -367 -413 -381 -32 -10 -63 -14
-88 -10 -22 4 -372 172 -789 381 l-750 375 -647 0 -648 0 -67 -24z"/>
<path d="M237 1219 c-124 -29 -218 -137 -234 -268 -26 -226 168 -480 405 -530
75 -16 4229 -16 4304 0 92 19 177 68 253 144 216 216 202 531 -30 637 l-50 23
-2305 2 c-1323 0 -2321 -3 -2343 -8z"/>
</g>
</svg>
